<?xml version="1.0" standalone="no"?>
<!DOCTYPE svg PUBLIC "-//W3C//DTD SVG 20010904//EN"
 "http://www.w3.org/TR/2001/REC-SVG-20010904/DTD/svg10.dtd">
<svg version="1.0" xmlns="http://www.w3.org/2000/svg"
 width="300.000000pt" height="300.000000pt" viewBox="0 0 300.000000 300.000000"
 preserveAspectRatio="xMidYMid meet">
<metadata>
Created by potrace 1.15, written by Peter Selinger 2001-2017
</metadata>
<g transform="translate(0.000000,300.000000) scale(0.100000,-0.100000)"
fill="#000000" stroke="none">
<path d="M923 2522 c-13 -2 -23 -8 -23 -13 0 -5 -7 -9 -15 -9 -8 0 -15 -7 -15
-16 0 -8 -4 -12 -10 -9 -6 4 -10 -8 -10 -29 0 -40 25 -76 52 -76 10 0 18 -4
18 -10 0 -6 31 -10 74 -10 41 0 81 -3 90 -6 14 -5 16 -35 16 -225 0 -210 -1
-219 -19 -219 -11 0 -36 16 -56 35 -21 19 -46 37 -56 40 -10 4 -19 11 -19 16
0 5 -11 9 -24 9 -13 0 -26 5 -28 11 -2 5 -28 13 -58 16 -30 3 -56 9 -58 14 -2
5 -49 9 -103 9 -64 0 -98 -4 -94 -10 4 -6 -11 -10 -39 -10 -26 0 -51 -6 -60
-15 -8 -8 -24 -15 -36 -15 -12 0 -28 -6 -35 -12 -33 -30 -45 -38 -55 -38 -5 0
-10 -4 -10 -10 0 -5 -6 -10 -14 -10 -19 0 -102 -82 -111 -109 -3 -11 -11 -21
-16 -21 -5 0 -9 -7 -9 -15 0 -8 -4 -15 -10 -15 -5 0 -12 -11 -16 -25 -3 -14
-10 -25 -15 -25 -5 0 -9 -15 -9 -34 0 -19 -5 -36 -12 -38 -6 -2 -13 -31 -16
-66 -2 -34 -8 -62 -13 -62 -5 0 -9 -27 -9 -60 0 -33 4 -60 9 -60 4 0 11 -28
14 -62 3 -34 10 -64 16 -66 6 -2 11 -17 11 -33 0 -17 4 -28 10 -24 5 3 12 -6
16 -20 3 -14 10 -25 15 -25 5 0 9 -9 9 -20 0 -11 5 -20 10 -20 6 0 10 -7 10
-15 0 -8 7 -15 15 -15 8 0 15 -5 15 -11 0 -14 25 -39 39 -39 6 0 11 -5 11 -11
0 -14 25 -39 39 -39 6 0 11 -4 11 -9 0 -5 11 -12 25 -15 14 -4 25 -11 25 -16
0 -6 11 -10 24 -10 13 0 26 -5 28 -11 2 -6 25 -13 51 -16 26 -3 47 -10 47 -14
0 -12 197 -12 202 0 2 5 23 12 48 15 25 3 46 11 48 16 2 6 15 10 28 10 13 0
24 4 24 9 0 5 11 12 25 15 14 4 25 11 25 16 0 6 5 10 10 10 10 0 22 8 55 37 7
7 18 13 24 13 6 0 11 7 11 15 0 8 5 15 10 15 6 0 10 -28 10 -64 0 -40 5 -70
13 -78 10 -10 51 -13 160 -13 141 1 147 1 166 24 13 15 21 38 21 62 0 35 -5
44 -44 76 -8 7 -38 13 -66 13 l-50 0 0 696 c0 638 -1 697 -17 712 -14 14 -39
17 -162 17 -80 0 -156 -1 -168 -3z m-105 -663 c2 -5 16 -9 32 -9 15 0 33 -7
40 -15 7 -8 17 -15 22 -15 18 0 138 -129 138 -149 0 -12 4 -21 9 -21 5 0 12
-22 16 -50 4 -27 11 -50 16 -50 5 0 9 -27 9 -60 0 -33 -4 -60 -9 -60 -5 0 -12
-25 -16 -55 -3 -30 -11 -55 -16 -55 -5 0 -9 -9 -9 -20 0 -11 -4 -20 -10 -20
-5 0 -10 -6 -10 -14 0 -8 -7 -16 -15 -20 -8 -3 -15 -10 -15 -17 0 -16 -66 -79
-83 -79 -9 0 -17 -5 -19 -10 -2 -6 -13 -12 -26 -13 -12 0 -22 -7 -22 -14 0 -9
-19 -13 -65 -13 -37 0 -65 -4 -65 -10 0 -5 -9 -10 -20 -10 -11 0 -20 5 -20 10
0 6 -28 10 -65 10 -46 0 -65 4 -65 13 0 7 -10 14 -22 14 -13 1 -24 7 -26 13
-2 5 -8 10 -13 10 -9 0 -21 8 -54 38 -7 6 -18 12 -24 12 -6 0 -11 7 -11 15 0
8 -5 15 -11 15 -5 0 -7 5 -4 10 3 6 1 10 -4 10 -6 0 -11 7 -11 15 0 8 -4 15
-10 15 -5 0 -10 11 -10 24 0 13 -6 26 -12 29 -10 3 -13 40 -13 142 0 102 3
139 13 143 6 2 12 15 12 28 0 23 5 33 38 69 6 7 12 16 12 20 0 9 56 65 65 65
4 0 13 6 20 13 37 32 46 37 70 37 14 0 25 4 25 9 0 6 17 12 38 14 54 6 196 -4
200 -14z"/>
<path d="M1504 2521 c-2 -2 -4 -42 -4 -88 l0 -83 750 0 750 0 0 85 0 85 -712
2 c-392 1 -728 2 -746 3 -18 0 -35 -1 -38 -4z"/>
<path d="M1630 2040 c0 -5 -7 -10 -15 -10 -10 0 -15 -10 -15 -31 0 -17 -4 -28
-10 -24 -6 4 -10 -5 -10 -19 0 -14 5 -26 10 -26 6 0 10 -13 10 -28 0 -22 5
-28 22 -29 13 -1 24 -7 26 -13 2 -5 26 -10 53 -10 l49 0 0 -610 c0 -481 -3
-610 -12 -611 -45 -2 -83 -11 -86 -19 -2 -6 -15 -10 -28 -10 -19 0 -24 -5 -24
-26 0 -14 -4 -23 -10 -19 -5 3 -10 -3 -10 -14 0 -12 5 -21 10 -21 6 0 10 -11
10 -25 0 -16 6 -25 15 -25 8 0 15 -4 15 -10 0 -6 114 -10 321 -10 264 0 323 2
335 14 8 8 14 19 14 25 0 6 5 11 10 11 6 0 10 16 10 35 0 19 -4 35 -10 35 -5
0 -10 5 -10 11 0 33 -28 39 -187 41 -87 1 -164 4 -170 6 -10 3 -13 60 -13 241
1 210 2 234 15 217 8 -11 15 -16 15 -11 0 4 14 -6 30 -24 17 -17 37 -31 45
-31 8 0 15 -4 15 -10 0 -5 11 -10 25 -10 16 0 25 -6 25 -15 0 -9 9 -15 25 -15
14 0 25 -4 25 -10 0 -5 22 -10 49 -10 30 0 51 -5 53 -12 6 -17 190 -16 196 0
2 7 24 12 53 12 27 0 49 5 49 10 0 6 11 10 24 10 14 0 31 7 40 15 8 8 22 15
31 15 9 0 26 11 39 25 13 14 26 25 30 25 11 0 36 27 36 39 0 6 5 11 11 11 14
0 39 25 39 39 0 6 4 11 9 11 5 0 12 11 15 25 4 14 11 25 16 25 6 0 10 9 10 21
0 11 7 27 15 35 8 9 15 26 15 40 0 13 5 24 10 24 6 0 10 58 10 155 0 85 -4
155 -9 155 -5 0 -12 16 -15 35 -4 19 -11 35 -16 35 -6 0 -10 11 -10 25 0 14
-4 25 -9 25 -5 0 -12 11 -15 25 -4 14 -11 25 -16 25 -6 0 -10 5 -10 11 0 14
-25 39 -39 39 -6 0 -11 9 -11 21 0 12 -8 23 -20 26 -11 3 -18 9 -15 13 3 5 -4
11 -15 15 -11 3 -20 11 -20 16 0 5 -7 9 -15 9 -8 0 -15 4 -15 9 0 5 -11 12
-25 15 -14 4 -25 11 -25 16 0 6 -11 10 -24 10 -13 0 -26 4 -28 10 -3 11 -37
18 -86 19 -19 1 -31 5 -27 11 4 6 -30 10 -95 10 -56 0 -99 -4 -96 -9 3 -5 -16
-11 -41 -14 -26 -3 -49 -10 -51 -16 -2 -6 -15 -11 -28 -11 -13 0 -24 -4 -24
-10 0 -5 -11 -12 -25 -16 -14 -3 -25 -10 -25 -15 0 -5 -5 -9 -11 -9 -14 0 -39
-25 -39 -39 0 -6 -5 -11 -11 -11 -6 0 -17 -7 -25 -15 -28 -27 -34 -16 -34 58
0 104 -5 107 -170 107 -80 0 -130 -4 -130 -10z m750 -199 c0 -5 20 -12 45 -15
25 -4 45 -11 45 -17 0 -5 11 -9 25 -9 14 0 25 -4 25 -10 0 -5 7 -10 15 -10 9
0 18 -7 21 -15 4 -8 11 -15 16 -15 16 0 78 -66 78 -83 0 -9 4 -17 9 -19 6 -1
12 -16 15 -33 3 -16 10 -31 16 -33 12 -4 14 -232 1 -232 -5 0 -12 -11 -15 -25
-4 -14 -11 -25 -16 -25 -6 0 -10 -9 -10 -21 0 -21 -71 -99 -90 -99 -5 0 -10
-7 -10 -15 0 -9 -9 -15 -24 -15 -13 0 -26 -5 -28 -10 -2 -6 -13 -12 -26 -13
-12 0 -22 -7 -22 -14 0 -10 -30 -13 -125 -13 -77 0 -125 4 -125 10 0 6 -10 10
-23 10 -13 0 -32 7 -43 15 -10 8 -25 15 -32 15 -7 0 -23 11 -36 25 -13 14 -28
25 -35 25 -6 0 -11 5 -11 11 0 7 -8 19 -19 28 -10 9 -21 26 -25 39 -4 12 -12
22 -17 22 -5 0 -9 16 -9 35 0 19 -4 35 -10 35 -6 0 -10 40 -10 100 0 60 4 100
10 100 6 0 10 16 10 36 0 20 4 33 10 29 5 -3 12 6 16 20 3 14 10 25 15 25 5 0
9 7 9 15 0 17 35 55 50 55 6 0 21 11 34 25 13 14 33 25 45 25 11 0 21 4 21 9
0 5 20 12 45 15 25 4 45 11 45 17 0 5 32 9 70 9 39 0 70 -4 70 -9z"/>
<path d="M0 515 l0 -85 38 -1 c20 -1 358 -2 750 -3 l712 -2 0 88 0 88 -750 0
-750 0 0 -85z"/>
</g>
</svg>
