<?xml version="1.0" standalone="no"?>
<!DOCTYPE svg PUBLIC "-//W3C//DTD SVG 20010904//EN"
 "http://www.w3.org/TR/2001/REC-SVG-20010904/DTD/svg10.dtd">
<svg version="1.0" xmlns="http://www.w3.org/2000/svg"
 width="300.000000pt" height="300.000000pt" viewBox="0 0 300.000000 300.000000"
 preserveAspectRatio="xMidYMid meet">
<metadata>
Created by potrace 1.15, written by Peter Selinger 2001-2017
</metadata>
<g transform="translate(0.000000,300.000000) scale(0.100000,-0.100000)"
fill="#000000" stroke="none">
<path d="M1285 2975 c-320 -52 -602 -195 -824 -418 -150 -151 -242 -286 -325
-480 -208 -487 -129 -1074 202 -1489 222 -278 523 -464 875 -540 137 -29 428
-32 557 -5 312 65 574 203 784 415 271 273 417 608 433 992 29 726 -464 1352
-1189 1511 -125 27 -386 34 -513 14z m505 -45 c587 -125 1014 -552 1142 -1143
29 -137 32 -407 5 -542 -120 -597 -554 -1038 -1150 -1167 -145 -31 -419 -32
-557 -1 -306 68 -554 200 -753 401 -469 471 -560 1213 -219 1772 78 128 117
179 219 282 213 216 502 362 818 413 129 21 359 14 495 -15z"/>
<path d="M1453 2742 c-15 -9 -35 -61 -28 -72 3 -5 1 -20 -4 -33 -9 -23 -13
-24 -47 -17 -44 10 -74 -2 -74 -30 0 -19 138 -173 172 -191 15 -8 24 -6 40 8
36 32 148 185 148 203 0 9 -9 25 -21 36 -21 19 -21 18 -45 -10 -14 -15 -28
-26 -31 -23 -3 4 -9 27 -14 53 -13 71 -54 103 -96 76z"/>
<path d="M1640 2432 c-65 -61 -82 -83 -82 -105 0 -15 1 -29 3 -31 15 -14 163
-106 170 -106 14 0 30 39 27 68 -3 26 -1 27 39 24 47 -4 83 22 83 61 0 40 -16
52 -65 51 -50 -1 -58 12 -25 41 25 23 25 30 -2 55 -37 34 -60 25 -148 -58z"/>
<path d="M1180 2470 c0 -11 7 -37 15 -56 l14 -35 -42 6 c-56 9 -97 -20 -97
-70 0 -31 3 -34 68 -56 72 -26 68 -19 59 -94 -3 -29 26 -30 87 -2 76 35 136
92 136 129 0 46 -14 63 -112 133 -96 68 -128 80 -128 45z"/>
<path d="M1445 2223 c-43 -45 -94 -119 -102 -151 -3 -15 0 -30 10 -40 14 -14
21 -14 57 -2 36 12 43 12 51 -1 5 -8 7 -22 5 -32 -8 -33 5 -47 40 -47 37 0 54
20 54 64 0 29 17 43 33 27 17 -17 45 -13 57 8 16 31 12 65 -13 102 -23 35
-121 109 -143 109 -7 0 -29 -17 -49 -37z"/>
<path d="M1905 2139 c-55 -16 -100 -63 -134 -143 -38 -86 -62 -103 -134 -92
-35 5 -49 2 -78 -16 -43 -30 -69 -81 -69 -138 0 -55 20 -86 60 -95 46 -10 69
3 91 51 23 48 49 61 97 50 16 -4 62 -44 117 -102 77 -81 94 -94 120 -93 17 1
75 -17 130 -39 134 -54 189 -68 221 -54 13 7 24 19 24 27 0 38 -20 53 -92 70
-100 23 -263 103 -325 159 -57 52 -83 98 -83 149 0 44 10 51 46 32 41 -21 76
-19 115 8 95 64 103 158 20 214 -35 24 -74 28 -126 12z"/>
<path d="M902 2115 c-52 -23 -78 -109 -51 -168 17 -38 54 -52 131 -51 l68 2 0
-39 c0 -63 -22 -99 -107 -179 -92 -87 -188 -141 -263 -148 -44 -4 -50 -7 -50
-28 0 -65 99 -57 245 20 129 67 136 73 207 162 106 133 140 144 206 65 49 -58
74 -69 107 -47 49 32 42 144 -12 185 -17 14 -40 21 -70 21 -80 0 -129 35 -173
123 -40 80 -153 119 -238 82z"/>
<path d="M1252 1308 c-29 -29 0 -58 57 -58 l31 0 0 -90 c0 -49 -2 -90 -5 -90
-2 0 -20 11 -40 24 -43 30 -126 42 -182 27 -176 -47 -227 -278 -89 -399 70
-61 172 -66 259 -12 l47 29 0 -30 0 -30 68 3 c65 3 67 4 70 31 3 23 -1 28 -27
33 l-31 6 -2 282 -3 281 -70 3 c-46 2 -74 -1 -83 -10z m33 -288 c59 -57 68
-134 23 -208 -55 -90 -215 -85 -263 8 -22 42 -19 128 5 168 32 53 75 74 143
69 49 -3 62 -8 92 -37z"/>
<path d="M1500 1285 l0 -35 305 0 305 0 0 35 0 35 -305 0 -305 0 0 -35z"/>
<path d="M1541 1111 c-15 -28 -3 -51 30 -58 l29 -5 0 -244 c0 -234 -1 -244
-19 -244 -31 0 -53 -28 -41 -51 10 -17 22 -19 139 -19 141 0 163 8 141 49 -9
18 -20 21 -80 21 l-70 0 0 95 0 94 36 -24 c67 -46 129 -54 210 -30 179 53 194
322 24 410 -69 36 -173 26 -228 -20 -17 -14 -32 -25 -35 -25 -3 0 -7 15 -9 33
-3 32 -4 32 -60 35 -48 3 -58 0 -67 -17z m377 -93 c87 -53 81 -192 -10 -248
-64 -39 -167 -18 -211 41 -28 39 -33 102 -12 149 38 85 146 112 233 58z"/>
<path d="M890 515 l0 -35 305 0 305 0 0 35 0 35 -305 0 -305 0 0 -35z"/>
</g>
</svg>
