<?xml version="1.0" standalone="no"?>
<!DOCTYPE svg PUBLIC "-//W3C//DTD SVG 20010904//EN"
 "http://www.w3.org/TR/2001/REC-SVG-20010904/DTD/svg10.dtd">
<svg version="1.0" xmlns="http://www.w3.org/2000/svg"
 width="700.000000pt" height="700.000000pt" viewBox="0 0 700.000000 700.000000"
 preserveAspectRatio="xMidYMid meet">
<metadata>
Created by potrace 1.11, written by Peter Selinger 2001-2013
</metadata>
<g transform="translate(0.000000,700.000000) scale(0.100000,-0.100000)"
fill="#000000" stroke="none">
<path d="M2140 5883 c-8 -3 -26 -16 -40 -28 -14 -13 -34 -25 -45 -27 -11 -2
-21 -13 -23 -25 -2 -12 -12 -25 -23 -28 -19 -6 -22 -14 -22 -60 0 -64 5 -84
30 -122 26 -40 58 -63 89 -63 8 0 27 -9 42 -20 24 -18 48 -21 164 -26 240 -9
234 -7 245 -82 12 -91 8 -912 -5 -944 -18 -43 -54 -30 -167 62 -38 31 -88 67
-110 80 -22 13 -47 31 -55 41 -8 11 -37 23 -63 28 -26 5 -55 16 -65 24 -9 9
-31 18 -47 21 -17 3 -70 13 -120 22 -49 8 -95 19 -101 24 -16 14 -112 22 -254
21 -142 0 -186 -5 -207 -26 -8 -8 -26 -15 -41 -16 -111 -2 -149 -11 -199 -45
-20 -13 -47 -24 -60 -24 -38 0 -87 -25 -147 -74 -31 -25 -63 -46 -71 -46 -8 0
-20 -8 -27 -18 -7 -11 -31 -27 -53 -38 -55 -25 -195 -167 -234 -236 -18 -31
-38 -59 -46 -61 -7 -3 -16 -19 -20 -36 -4 -17 -12 -31 -20 -31 -12 0 -45 -57
-45 -79 0 -5 -9 -19 -21 -30 -15 -13 -23 -39 -29 -86 -5 -36 -15 -74 -23 -83
-21 -23 -35 -82 -43 -172 -3 -41 -15 -97 -27 -124 -27 -64 -30 -231 -5 -286
22 -47 26 -65 33 -135 9 -87 24 -147 41 -166 8 -9 17 -34 20 -55 9 -64 15 -87
21 -80 10 9 43 -25 43 -44 0 -10 14 -34 30 -55 17 -21 30 -48 30 -61 0 -12 8
-29 18 -36 10 -7 22 -25 25 -39 5 -18 15 -28 34 -32 20 -5 33 -17 46 -46 12
-27 30 -45 58 -59 28 -14 47 -33 61 -61 14 -28 32 -46 63 -61 24 -11 46 -27
48 -34 3 -8 23 -19 44 -26 21 -7 48 -23 61 -36 13 -13 31 -24 40 -25 38 -1 64
-10 90 -29 15 -11 64 -27 112 -36 47 -9 96 -23 110 -32 21 -15 56 -17 235 -17
184 0 214 2 243 18 36 20 55 25 112 33 53 8 97 23 110 39 7 8 34 18 61 21 33
4 53 13 60 25 5 10 27 23 49 29 38 10 65 29 72 50 2 6 10 12 18 14 24 3 56 24
105 66 25 22 57 43 71 46 17 4 27 15 31 35 6 32 28 45 37 22 4 -9 9 -66 12
-127 9 -186 20 -203 124 -211 78 -6 495 -5 560 0 65 6 97 27 128 83 25 45 35
139 20 184 -11 32 -87 104 -126 119 -21 9 -136 18 -227 19 -7 0 -11 457 -11
1398 -2 1439 -6 1775 -24 1843 -20 73 -25 74 -430 76 -195 0 -362 -1 -370 -4z
m-400 -1518 c109 -8 137 -13 168 -29 15 -7 50 -17 77 -20 28 -4 61 -16 75 -27
14 -11 41 -27 59 -35 75 -34 311 -291 330 -359 5 -19 16 -42 24 -50 14 -13 27
-58 43 -151 3 -16 15 -49 27 -74 18 -38 22 -61 21 -150 0 -78 -5 -112 -17
-130 -18 -29 -33 -84 -42 -153 -7 -57 -20 -93 -40 -113 -8 -9 -15 -26 -15 -39
0 -13 -10 -33 -22 -45 -12 -11 -23 -28 -24 -37 -2 -10 -16 -29 -33 -43 -16
-14 -37 -40 -46 -58 -26 -54 -160 -172 -194 -172 -7 0 -26 -11 -43 -25 -16
-14 -40 -25 -53 -25 -23 0 -55 -23 -55 -40 0 -12 -48 -20 -145 -24 -44 -2 -92
-4 -106 -5 -14 0 -37 -10 -50 -22 -17 -15 -32 -19 -53 -15 -17 4 -32 10 -36
14 -11 17 -48 24 -144 28 -130 5 -146 9 -170 38 -12 14 -37 27 -58 30 -22 4
-42 15 -48 25 -5 11 -23 24 -40 30 -17 5 -54 30 -83 54 -29 24 -65 50 -81 58
-16 8 -31 23 -32 34 -2 11 -10 25 -18 31 -9 6 -16 19 -16 28 0 9 -6 19 -14 22
-8 3 -17 17 -21 32 -3 14 -15 32 -25 39 -10 7 -20 31 -24 57 -4 24 -16 54 -26
67 -11 12 -20 31 -21 43 -1 12 -3 35 -4 51 -6 48 -5 435 0 489 3 27 15 64 26
83 11 18 22 49 25 69 5 43 25 83 63 126 15 18 41 53 56 78 29 46 132 150 150
150 6 0 26 14 45 30 68 59 105 79 155 85 30 4 59 15 72 27 14 13 40 21 80 25
32 3 59 6 60 7 4 4 159 -2 243 -9z"/>
<path d="M3508 5873 c-3 -10 -6 -102 -7 -204 l-2 -185 1750 0 1751 0 0 198 0
198 -212 0 c-117 0 -902 3 -1744 6 -1465 5 -1532 4 -1536 -13z"/>
<path d="M4027 4784 c-1 -1 -48 -4 -105 -7 -76 -3 -107 -9 -120 -21 -10 -9
-23 -16 -29 -16 -25 0 -41 -36 -42 -96 -1 -23 -7 -33 -21 -37 -16 -4 -20 -14
-20 -46 0 -29 6 -46 20 -58 13 -11 20 -30 20 -53 0 -45 24 -80 54 -80 13 0 35
-9 48 -20 28 -21 104 -35 188 -34 30 0 57 -3 60 -7 7 -10 3 -2240 -4 -2539 -5
-245 -11 -299 -30 -301 -6 0 -18 -2 -26 -3 -8 -2 -35 -6 -60 -9 -54 -7 -77
-14 -112 -39 -14 -10 -38 -18 -53 -18 -30 0 -68 -17 -61 -28 9 -15 -10 -77
-24 -77 -24 0 -24 -58 0 -80 11 -10 20 -28 20 -41 0 -38 18 -72 42 -79 13 -4
26 -12 29 -17 4 -6 44 -13 90 -16 118 -10 1303 -9 1367 1 69 10 88 20 100 56
6 16 20 39 31 50 30 30 31 145 2 161 -11 5 -22 23 -26 40 -15 66 -52 72 -580
86 -126 3 -236 6 -243 7 -29 1 -35 82 -35 502 0 582 0 596 36 560 9 -8 20 -15
26 -15 5 0 41 -27 78 -61 37 -33 81 -63 96 -66 15 -3 32 -14 37 -24 6 -11 27
-20 56 -25 37 -5 50 -13 63 -35 16 -28 37 -39 78 -39 12 0 28 -7 36 -15 18
-17 41 -23 137 -30 51 -4 85 -13 110 -28 33 -21 47 -22 220 -22 173 0 188 2
228 23 28 14 68 24 115 27 96 7 124 14 130 29 3 7 28 16 55 20 30 4 67 18 93
36 24 16 51 30 59 30 23 0 78 37 123 81 22 21 45 39 51 39 19 0 68 51 82 86 9
21 21 34 33 34 25 0 70 43 83 80 5 17 14 30 19 30 6 0 21 23 33 51 13 28 33
59 45 70 12 11 21 32 21 47 0 16 14 50 30 76 17 27 35 71 41 99 5 28 14 54 20
57 16 10 23 127 23 365 -1 265 -6 328 -32 380 -11 22 -22 56 -26 75 -3 19 -17
48 -31 64 -16 18 -25 41 -25 62 0 18 -8 41 -18 51 -10 10 -24 32 -31 48 -8 17
-18 40 -24 53 -6 12 -16 22 -23 22 -6 0 -15 11 -18 25 -7 28 -73 98 -85 90
-13 -7 -29 17 -34 50 -2 21 -15 38 -43 57 -21 14 -39 32 -39 40 0 7 -15 20
-32 28 -18 9 -40 25 -49 38 -8 12 -23 22 -33 22 -10 0 -27 11 -40 24 -12 12
-39 28 -61 35 -22 6 -44 20 -50 31 -7 12 -26 21 -58 26 -26 4 -59 17 -75 30
-16 13 -36 24 -45 25 -9 0 -26 2 -37 4 -11 2 -51 6 -90 9 -45 3 -73 10 -81 20
-16 22 -54 27 -219 26 -172 0 -205 -3 -237 -24 -13 -8 -52 -20 -86 -26 -76
-13 -108 -25 -128 -45 -9 -8 -24 -16 -35 -16 -10 -1 -28 -2 -40 -3 -11 0 -26
-9 -33 -18 -7 -10 -35 -28 -62 -39 -27 -12 -55 -30 -62 -41 -7 -10 -19 -18
-27 -18 -22 0 -83 -59 -87 -83 -2 -13 -16 -28 -33 -36 -16 -8 -43 -25 -58 -38
-30 -24 -52 -29 -62 -14 -3 6 -8 67 -11 138 -2 70 -7 141 -10 156 -11 65 -53
95 -146 103 -56 5 -317 11 -321 8z m1521 -487 c17 -15 68 -31 127 -40 40 -7
66 -17 87 -35 10 -8 38 -18 62 -23 25 -4 54 -17 66 -29 11 -11 27 -20 35 -20
8 0 24 -13 36 -29 12 -17 35 -35 50 -42 42 -17 155 -141 169 -186 7 -21 19
-42 25 -48 7 -5 21 -35 30 -65 10 -30 27 -71 39 -90 20 -33 21 -48 21 -275 l0
-240 -27 -39 c-16 -21 -28 -45 -28 -53 0 -8 -11 -25 -25 -39 -13 -13 -29 -42
-35 -64 -17 -62 -160 -220 -199 -220 -6 0 -19 -15 -28 -34 -16 -34 -36 -46
-80 -46 -13 0 -32 -9 -42 -19 -11 -11 -38 -25 -61 -31 -23 -6 -44 -18 -47 -25
-10 -27 -81 -36 -285 -35 -222 0 -285 5 -308 24 -8 7 -39 18 -67 24 -29 6 -70
22 -91 36 -20 13 -51 26 -68 30 -17 4 -44 21 -60 38 -16 17 -53 46 -81 65 -29
18 -53 40 -53 48 0 7 -16 31 -36 52 -20 21 -45 56 -55 79 -10 22 -30 53 -44
68 -20 21 -25 37 -25 78 0 34 -7 62 -21 84 -18 30 -21 51 -22 191 -2 204 3
253 25 282 11 14 18 42 19 70 0 48 10 83 22 82 21 -2 25 2 37 40 8 22 21 46
30 52 9 7 22 28 28 47 16 46 68 104 112 123 19 8 51 29 70 46 47 43 91 71 113
71 10 0 37 11 60 24 23 13 71 29 107 36 36 6 76 19 90 28 36 23 80 28 203 26
80 -2 113 -6 125 -17z"/>
<path d="M2 1203 l3 -198 30 -2 c17 -1 803 -5 1748 -8 l1717 -6 0 205 0 206
-1750 0 -1750 0 2 -197z"/>
</g>
</svg>
